<svg xmlns="http://www.w3.org/2000/svg" viewBox="0 0 1200 630" fill="none">
  <rect width="1200" height="630" fill="#0a0a0a"/>
  <!-- Grid pattern -->
  <g opacity="0.04" stroke="#fff" stroke-width="1">
    <line x1="120" y1="0" x2="120" y2="630"/>
    <line x1="240" y1="0" x2="240" y2="630"/>
    <line x1="360" y1="0" x2="360" y2="630"/>
    <line x1="480" y1="0" x2="480" y2="630"/>
    <line x1="600" y1="0" x2="600" y2="630"/>
    <line x1="720" y1="0" x2="720" y2="630"/>
    <line x1="840" y1="0" x2="840" y2="630"/>
    <line x1="960" y1="0" x2="960" y2="630"/>
    <line x1="1080" y1="0" x2="1080" y2="630"/>
    <line x1="0" y1="120" x2="1200" y2="120"/>
    <line x1="0" y1="240" x2="1200" y2="240"/>
    <line x1="0" y1="360" x2="1200" y2="360"/>
    <line x1="0" y1="480" x2="1200" y2="480"/>
  </g>
  <!-- Title -->
  <text x="600" y="280" text-anchor="middle" fill="#ffffff" font-family="system-ui, sans-serif" font-size="56" font-weight="600" letter-spacing="-1">The-Prompt-Shelf</text>
  <text x="600" y="340" text-anchor="middle" fill="#888888" font-family="system-ui, sans-serif" font-size="24">Curated AI Coding Rules &amp; Prompts</text>
  <!-- Shelf icon -->
  <g transform="translate(555, 380)" stroke="#666" stroke-width="2.5" stroke-linecap="round" stroke-linejoin="round" fill="none">
    <rect x="5" y="8" width="14" height="50" rx="2"/>
    <rect x="22" y="2" width="11" height="56" rx="2"/>
    <rect x="36" y="14" width="9" height="44" rx="2"/>
    <rect x="48" y="5" width="14" height="53" rx="2"/>
    <rect x="65" y="10" width="9" height="48" rx="2" transform="rotate(6 69.5 58)"/>
    <line x1="0" y1="60" x2="82" y2="60" stroke-width="3"/>
  </g>
  <!-- URL -->
  <text x="600" y="570" text-anchor="middle" fill="#4a4a4a" font-family="monospace" font-size="18">thepromptshelf.dev</text>
</svg>
